<svg version="1.1" id="US" xmlns="http://www.w3.org/2000/svg" xmlns:xlink="http://www.w3.org/1999/xlink" x="0px" y="0px"
	 width="800px" height="400px" viewBox="0 0 800 400" style="enable-background:new 0 0 800 400;" xml:space="preserve">
<style type="text/css">
	.st0{fill:none;stroke:#999;stroke-width:0.2;stroke-linejoin:round;stroke-miterlimit:3.8637;}
</style>
<path class="st0" d="M124.78,97.09c0.03,0,0.11,0,0.08-0.05c0.01-0.01,0.02-0.02,0.04-0.02c0.18,0.09,0.28,0.19,0.47,0.1
	c0.22-0.08,0.45,0.02,0.69-0.02"/>
<path class="st0" d="M140.43,90.91c0.01,0.75-0.02,4.81-0.02,5.8l0.02,0.01c-0.12,0.17,0.01,0.16,0.09,0.29
	c-0.02,0.06,0.11,0.06,0.05,0.19l0.09,0.09c-0.02,0.09-0.09,0.14-0.13,0.18c0.09,0.05,0.09,0.1,0.15,0.19"/>
<path class="st0" d="M169.32,90.93c-0.01,0.47-0.05,6.86-0.05,6.86"/>
<path class="st0" d="M169.27,97.79c1.02-0.01,15.83,0.02,16.6,0.02"/>
<path class="st0" d="M169.27,97.79c0,0-0.03,2.08-0.04,2.12"/>
<path class="st0" d="M133.83,106.66c-0.11-0.02-9.23-0.01-9.37-0.01"/>
<path class="st0" d="M153.71,106.65c0.01-0.64-0.01-4.47-0.01-5.58"/>
<path class="st0" d="M140.43,106.65c-0.87-0.01-6.35-0.01-6.59,0.01"/>
<path class="st0" d="M140.43,106.65c0.86,0,6.54,0.04,6.64,0.02"/>
<path class="st0" d="M158.14,108.88c0,0.55-0.01,6.77,0.01,9.02"/>
<path class="st0" d="M147.07,106.66c-0.01,2.88-0.07,8.4-0.04,11.24h0.01"/>
<path class="st0" d="M158.15,117.9c-0.97-0.01-9.45,0.01-11.09,0"/>
<path class="st0" d="M147.06,117.9c-0.01,0.35,0.07,1.95-0.22,2.18c-0.15,0.05-0.27,0.03-0.38-0.07c0.01-0.23-0.26-0.16-0.43-0.14
	l0.01-0.04c-0.15-0.01-0.71,0.05-0.48,0.25c-0.06,0.05-0.02,0.14-0.01,0.2c0.01,0.01,0.04,0.02,0.05,0.03
	c-0.01,0.05,0.06,0.11,0.1,0.14c-0.01,0.01-0.08,0.04-0.09,0.05c0.01,0.14,0.02,0.29,0.04,0.45c0.1,0.05,0.09,0.21,0.02,0.3
	c0.07,0.27,0.31,0.56,0.22,0.86c-0.18,0.05-0.14,0.01-0.06,0.15c-0.08,0.04-0.1,0.05-0.06,0.13"/>
<path class="st0" d="M158.15,117.9c0.01,1.5,0.01,11.96,0.01,12.76"/>
<path class="st0" d="M186.13,103.27c0.82,0.01,11.51,0.01,11.64,0.01"/>
<path class="st0" d="M169.23,99.91c0.01,1.5,0.01,3,0.02,4.49"/>
<path class="st0" d="M199.05,105.52c0.03-0.58-1.04-0.19-1.02-0.85c-0.16-0.1-0.17-0.39-0.16-0.57c0.03-0.14,0.26-0.22,0.23-0.36
	c-0.12-0.14-0.27-0.15-0.35-0.33c0.01-0.03,0.04-0.11,0.01-0.14"/>
<path class="st0" d="M186.13,103.27l-0.33,0.01c0.11,0.03-0.08,0.18,0.07,0.15c0.14,0.05,0.1,0.23,0.08,0.31c-0.04,0-0.11,0-0.11,0
	c-0.02,0.13,0.13,0.21,0.24,0.15c0.05,0.13,0.16,0.38-0.08,0.42c0.11,0.08,0,0.07,0.01,0.16c0.07,0,0,0.08-0.03,0.09
	c-0.04,0.07,0.02,0.21-0.1,0.22c-0.05-0.01-0.03,0.12-0.1,0.11c-0.11,0.22,0.17,0.22,0.24,0.38c0.1,0.1,0.03,0.2,0.11,0.29"/>
<path class="st0" d="M169.25,104.41c3.37,0.28,10.22-0.66,13.38,0.52c0.64-0.25,1.05-0.24,1.78-0.17c0.05,0.23,0.38,0.06,0.59,0.29
	c0.11-0.02,0.24-0.01,0.33,0.05c-0.04,0.12,0.16,0.07,0.23,0.08c-0.07,0.19,0.15,0.18,0.18,0.33c0.25-0.01,0.14,0.03,0.35,0.07"/>
<path class="st0" d="M169.25,104.41c0.02,1.5-0.02,3,0,4.5"/>
<path class="st0" d="M186.1,105.56c0.27-0.05,0.12,0.11,0.12,0.24c-0.08,0.14,0.21,0.19,0.17,0.33c-0.14,0.04,0,0.23,0.11,0.24
	c0.02,0.05,0.03,0.11,0.03,0.17c0.04,0.02,0.09,0.08,0.1,0.12c0.04,0,0.18,0.05,0.18,0.05l0.01,0.13l-0.05,0.02
	c0.08,0.14,0.04,0.12,0.2,0.25c-0.09,0.09-0.03,0.13-0.11,0.24c0.12,0.26-0.1,0.39,0.44,0.51c-0.04,0.07,0.01,0.2-0.07,0.23
	c0.05,0.11,0.32,0.09,0.08,0.19c-0.01,0.02,0,0.05,0.01,0.07c-0.17,0.2,0.33,0.06,0.08,0.19c-0.06,0.06,0.08,0.1-0.01,0.21
	c0.05,0.03,0.06,0.08,0.03,0.13c0.16,0.05,0,0.15,0.13,0.24c-0.05,0.06-0.08,0.17-0.05,0.27c-0.3,0.15,0.21,0.25,0.18,0.43"/>
<path class="st0" d="M197.28,110.32c0.18,0.04,0.22-0.31,0.06-0.38c0.03-0.23,0.5-0.17,0.65-0.29c0.02-0.44,0.42-0.49,0.37-0.92
	c-0.05-0.21-0.27-0.16-0.34-0.35c-0.03-0.07,0.13-0.25,0.09-0.37c0.36-0.16,0.8,0.01,1.57-0.42c-0.07-0.36,0.34-0.4,0.4-0.67
	c0.1-0.07-0.03-0.16,0.07-0.24c-0.05-0.09-0.07-0.19-0.06-0.3h-0.08c-0.08-0.15-0.33-0.12-0.4-0.19c-0.17-0.17-0.01-0.3-0.29-0.43
	c-0.09-0.07-0.36-0.1-0.31-0.24"/>
<path class="st0" d="M187.67,109.85c2.68,0.05,6.16,0.01,8.96-0.07c0.09,0.08,0.14,0.16,0.25,0.18c0.01,0.02-0.02,0.07,0.06,0.08
	c0.02,0.1,0.18,0.06,0.14,0.13l0.02,0.02c-0.04,0.05,0.04,0.06,0.08,0.07c-0.03,0.06,0.09,0.03,0.11,0.05"/>
<path class="st0" d="M169.25,108.9c1.47-0.01,2.96-0.02,4.44,0.01c0.01,0.75,0.01,1.5,0.01,2.25"/>
<path class="st0" d="M187.67,109.85c-0.08,0.07,0,0.15,0.09,0.13c0.02-0.02,0.07-0.07,0.12-0.06c0.02,0.06-0.05,0.12-0.09,0.17
	c0.07,0.07,0.23,0.29,0.1,0.35c0.03,0.08,0.27-0.03,0.23,0.13c0.09,0.05,0.23,0.02,0.16,0.17c0.38,0.13-0.04,0.37,0.29,0.36
	c0.01,0.01,0.11,0.04,0.11,0.07"/>
<path class="st0" d="M173.7,111.16c4.99,0,9.98,0,14.97,0"/>
<path class="st0" d="M188.67,111.16c0.02,0.05,0.3,0.25,0.37,0.23c0.06,0.23,0.25,0.01,0.33,0.01c0.3,0.01,0.02,0.07,0.28,0.21
	c-0.08,0.07-0.03,0.07,0.04,0.11c-0.13,0.19-0.25-0.11-0.28,0.19c-0.3,0.02-0.01,0.23-0.28,0.22c-0.07,0.13,0.35,0.33,0.37,0.43
	c0.04,0.01,0.14-0.04,0.11,0.04c-0.17,0.02,0.13,0.29,0.13,0.36c0.17,0.02,0.12,0.16,0.33,0.07c0.05,0.1,0.22-0.01,0.2,0.14
	c-0.04,1.1-0.12,3.46-0.08,4.75"/>
<path class="st0" d="M173.71,117.92c-0.01-1.26-0.02-5.78-0.02-6.77h0.01"/>
<polyline class="st0" points="171.58,117.9 171.58,117.89 173.71,117.92 "/>
<path class="st0" d="M173.71,117.92c0.87,0,16.14-0.03,16.5-0.03"/>
<path class="st0" d="M190.22,119.03c-0.01-0.37-0.01-0.76-0.01-1.13"/>
<line class="st0" x1="171.58" y1="119.04" x2="171.58" y2="117.9"/>
<path class="st0" d="M190.47,125.48c0.15-1.74,0.2-4.67-0.26-6.46"/>
<path class="st0" d="M199.77,122.41c0.55,0.38-0.51,0.25-0.31,0.54c0.02,0.12-0.17,0.05-0.23,0.05c-0.06,0.04-0.02,0.15-0.07,0.21
	c0.07,0.19,0.03,0.28-0.01,0.35c0.13,0.2-0.12,0.25-0.26,0.29c-0.25-0.06,0.01,0.05-0.1,0.19c-0.24-0.02-0.15,0.16-0.44,0.33
	c0.21,0.18,0.2,0.25-0.1,0.27c-0.19,0.07-0.29,0.1-0.04,0.14c0.06,0.07-0.09,0.12-0.11,0.18c-0.01,0.05,0.14,0.14,0.04,0.18
	c-0.17,0.03-0.24,0.18-0.39,0.22c-0.02,0.07,0.09,0.06,0.13,0.09c0.13,0.15-0.06,0.17-0.15,0.2c0.04,0.14,0.27,0.1,0.26,0.25
	c0.04,0.15-0.09,0.21-0.12,0.33c0.08,0.07,0.21,0.2,0.19,0.32c-0.11,0.06-0.21,0.17-0.16,0.33"/>
<path class="st0" d="M197.9,126.88c-1.18-0.01-6.19-0.02-6.4-0.04"/>
<path class="st0" d="M221.51,105.98c0,1.01,0.03,2.76,0.03,3.76"/>
<path class="st0" d="M232.95,111.59c-0.25-0.15-0.77-0.06-0.87,0.2h-0.03"/>
<path class="st0" d="M232.04,111.8c-2.69-0.01-5.63,0.02-8.2,0.01"/>
<path class="st0" d="M221.54,109.74c0,0.68,0.01,1.38-0.01,2.07c0.77,0.01,1.54,0.01,2.31,0"/>
<path class="st0" d="M223.85,111.81c0,0.37-0.08,0.79-0.03,1.16c0.13,0.01,0.24-0.17,0.32-0.21c0.12,0,0.16-0.03,0.18-0.13
	c0.28-0.08,0.33-0.43,0.66-0.2c0.05-0.08,0.23-0.23,0.32-0.28c0-0.07,0.05-0.15,0.12-0.16c0.08,0.04,0.04,0.06-0.01,0.1
	c0.01,0.03,0.06,0.04,0.08,0.04c0.09,0.14,0.59,0.21,0.71,0.08c-0.02-0.04-0.08-0.02-0.09-0.08c0.1,0.01,0.18,0.01,0.06-0.08
	c0.12-0.11,0.46,0.1,0.43-0.12c0.21-0.1,0.44,0.1,0.65,0.2c0.04-0.01-0.02-0.08,0.02-0.07c0.08,0.04,0.14,0,0.22,0.03v0.09
	l-0.11,0.02c0.05,0.09,0.16,0.16,0.27,0.14l-0.04,0.1c-0.09,0.05,0.22,0.05,0.06,0.24l0.06,0.03"/>
<path class="st0" d="M229.28,113.87c0.03-0.02,0.28-0.21,0.29-0.22c-0.09-0.05-0.22-0.16-0.3-0.23l-0.2,0.13"/>
<path class="st0" d="M232.04,111.8c0.07,0.95,0.13,1.89,0.21,2.84c0.44,0.01,0.89,0.01,1.33,0.02"/>
<path class="st0" d="M211.98,113.17c0.19-0.15,0.21,0.01,0.41,0.07c0.16-0.01,0.24-0.05,0.39-0.1c0.08,0.03,0.01,0.15,0.1,0.17
	c0.29,0.01,0.34,0.31,0.42,0.54c0.34,0.16,0.71-0.01,0.98,0.26c0.01,0.12,0.19,0.16,0.31,0.15c0.03-0.09,0.06-0.14,0.17-0.13
	c0.24-0.06,0.48,0.1,0.63,0.2c0.08-0.13,0.21,0,0.32-0.06c0.12-0.21,0.32-0.22,0.54-0.29c0.08,0.04,0.04,0.24,0.08,0.33
	c0.24,0.19,0.47,0.11,0.59,0.42"/>
<path class="st0" d="M221.54,109.74c-0.61,0.07-0.03,0.23-0.24,0.55c0.16,0.23-0.18,0.49-0.25,0.71c0,0.08-0.03,0.15-0.02,0.23
	c-0.07,0.04-0.06,0.08-0.04,0.14c-0.13,0-0.13-0.03-0.08,0.11c-0.06,0.02-0.1,0.07-0.07,0.14c-0.1,0.06-0.14,0.14-0.02,0.21
	c-0.15,0.33-0.61,0.46-0.87,0.74c-0.1-0.02-0.2,0.06-0.28,0.09c-0.13,0.05-0.14-0.21-0.25-0.13c-0.32,0.27-0.09,0.05-0.23,0.3
	c-0.07,0.03-0.33-0.07-0.28,0.1c-0.05,0.01-0.15,0.11-0.15,0.11c0.09,0.19,0.05,0.18-0.13,0.23c-0.01,0.1,0.21,0.1,0.07,0.24
	c0.12,0.18,0,0.06-0.11,0.05c-0.03,0.1-0.11,0.21-0.23,0.12c0.06-0.11,0.07-0.12-0.03-0.24c-0.06,0.01-0.12-0.04-0.15-0.09
	c-0.22,0.04-0.28,0.52-0.44,0.52c0,0.1,0.12,0.28,0.09,0.42c-0.02,0.1-0.17,0.01-0.23,0.04c-0.06,0.04-0.08,0.35-0.13,0.35
	c-0.11,0.01-0.51,0.12-0.58,0.05"/>
<path class="st0" d="M232.94,115.63c-0.19,0.05-0.45-0.03-0.59,0.1"/>
<path class="st0" d="M216.91,114.73c-0.05,0.14,0.14,0.33-0.04,0.4c-0.03,0.29-0.01,0.3,0.26,0.54c0.12,0.02,0.02,0.08-0.01,0.13
	c0.05,0.07,0.12,0.08,0.19,0.15l-0.02,0.02c0.01,0.01,0.04,0.16,0.07,0.11c0.1,0.06,0.17,0.19,0.21,0.32
	c0.04,0.04,0.31,0.03,0.25,0.11c0.01,0.06,0.2,0.08,0.08,0.13c0.05,0.04,0.16,0,0.19,0.07c0.06,0.04,0.15-0.06,0.2,0.01"/>
<path class="st0" d="M218.29,116.72c0.11,0.01,0.03,0.1-0.04,0.12c-0.02,0.09,0.21,0.09,0.12,0.23c0.1,0.2,0.27,0.19,0.42,0.27
	c0.05,0.17,0.48,0.18,0.54,0.02c0.16-0.01,0.16-0.07,0.29-0.17c0.04-0.09,0.32,0.21,0.32,0.19c0.24-0.13,0.63-0.09,0.83-0.25
	l-0.05-0.08c0.09-0.11,0.13-0.05,0.24,0.02c0.17-0.03,0.62-0.39,0.62-0.12c0.06,0,0.63-0.26,0.37-0.24c0.1-0.25,0.39-0.12,0.02-0.33
	c0-0.01,0.12-0.14,0.14-0.15c0-0.04,0.02-0.07,0.07-0.07c0.05-0.29,0.67-0.48,0.63-0.8c0.06-0.12,0.18-0.26,0.33-0.33
	c-0.07-0.09,0.02-0.13,0.11-0.18c0.19-0.41,0.21-0.75,0.59-0.21c0.03,0,0.39,0.12,0.41,0.08c0.16-0.23,0.46-0.54,0.52-0.82
	c0.01,0,0.15-0.12,0.15-0.12l0.28,0.18c0.09-0.18,0.16-0.24,0.32-0.37l0.01,0.07l0.2-0.17l0.05,0.03l0.09-0.13l-0.02-0.01
	c0.08-0.11,0.25-0.21,0.36-0.32c-0.13-0.11,0.06-0.27,0.13-0.4l-0.04-0.03c0.04-0.09,0-0.15,0.04-0.23
	c0.39,0.22,0.74,0.53,1.14,0.74c0.06-0.15,0.15-0.29,0.22-0.43"/>
<path class="st0" d="M202.4,117.94c-0.25-0.16,0.25-0.56,0.42-0.53c0.41,0.04,0.97,0.66,1.18,0.17c-0.19-0.16-0.28-0.7,0.13-0.57
	c1.42-0.35-0.08-0.24,0.75-0.87"/>
<path class="st0" d="M214.52,118.81c0.32-0.19,0.8-0.24,1.17-0.33c0.07-0.05,0.11-0.32,0.3-0.24c0.17-0.02,0.4-0.1,0.32-0.28
	c0.08-0.09,0.24-0.09,0.32-0.16c-0.03-0.16,0.05-0.19,0.2-0.23c0.52-0.23,1.04-0.48,1.46-0.86"/>
<path class="st0" d="M218.96,118.83l0.04-0.05c0,0-0.49,0-0.6-0.01c-0.86,0.14-1.89-0.01-2.8,0.05c-0.34,0.02-0.75,0-1.09-0.02"/>
<path class="st0" d="M202.4,117.94c0.18,0.05,0,0.23-0.01,0.37c0.1,0.18-0.08,0.51-0.27,0.59c-0.13-0.19-0.32-0.08-0.36,0.12"/>
<path class="st0" d="M201.76,119.03c0.76-0.29,3.09,0.53,3-0.39c0.15,0.04,0.48-0.07,0.49,0.1c2.95-0.15,6.41,0.16,9.27,0.08"/>
<path class="st0" d="M201.76,119.03c-0.08,0.15-0.24,0.14-0.11-0.04c0.04-0.1-0.09-0.19-0.19-0.08c-0.02,0.09,0.1,0.19,0.01,0.27
	c0.04,0.04,0.12,0.19,0.04,0.23c-0.06-0.02-0.19-0.05-0.18,0.05c0.01,0.04,0.19,0.08,0.12,0.14c-0.11,0.09-0.28-0.02-0.29,0.06
	c0.44,0.29,0.04,0.18-0.06,0.5"/>
<line class="st0" x1="204.47" y1="122.41" x2="210.23" y2="122.41"/>
<line class="st0" x1="210.23" y1="122.41" x2="213.1" y2="122.41"/>
<path class="st0" d="M211.58,131.41l0.02-0.02c-0.3-0.34-0.23-0.82-0.11-1.22c-0.3-0.53-0.05-1-0.04-1.12
	c-0.05-0.3,0.22-0.28,0.3-0.45l0.06-0.02c-0.1-0.16-0.34-0.06-0.18-0.34c0.04-0.2-0.39-0.54-0.32-0.84
	c-0.51-1.53-0.77-3.37-1.07-4.99"/>
<path class="st0" d="M206.17,132.58l0.01-0.04c-0.01,0-0.02-0.01-0.01-0.02c-0.05-0.13,0.19-0.24,0.06-0.4
	c-0.35-0.14-0.54-0.39-0.42-0.74c1.91-0.05,3.85,0.01,5.77,0.01"/>
<path class="st0" d="M204.47,122.41c0.04,0.08,0.08,0.2,0.2,0.22c0.01,0.07-0.09,0.82-0.11,0.82c-0.32,2.96-0.94,6.34-0.54,9.34"/>
<path class="st0" d="M211.58,131.41c0.07,0.22,0.17,0.39,0.28,0.66c0.2-0.05,5.43,0.27,5.87,0.3c0,0.13,0.06,0.35,0.14,0.46
	c0.07-0.01,0.16-0.02,0.23,0.01c0.23-0.28-0.04-0.66,0.1-0.96c0.14,0.09,0.09-0.14,0.2-0.07l0.05-0.02
	c0.22,0.18,0.51,0.19,0.81,0.26c0.01-0.04,0.06-0.04,0.1-0.03"/>
<path class="st0" d="M212.01,107.35c0.99-0.02,3.31-0.1,4.29-0.13"/>
<path class="st0" d="M207.55,107.2c1.49,0.01,2.97,0.01,4.46,0v0.14"/>
<path class="st0" d="M212.01,107.35c0.04,1.95-0.01,3.89-0.02,5.83"/>
<path class="st0" d="M204.86,116.14l-0.02-0.05h-0.09l-0.01-0.06c0.24-0.02-0.03-0.04-0.02-0.17c0.33,0.13,0.04-0.05,0.16-0.13
	c0.02-0.03-0.1-0.17-0.04-0.2c0.23,0.05,0.15-0.17,0.23-0.21c-0.09-0.13-0.24-0.23,0.03-0.34v0.07c0.05-0.01,0.08-0.06,0.1-0.1
	c0.01,0.19,0.11,0.02,0.11-0.05c0.08-0.08,0.18-0.12,0.21-0.25l-0.05-0.02c0.29-0.14,0.11-0.13,0.3-0.41
	c0.11-0.07,0.22-0.09,0.28-0.21c0,0-0.04-0.09-0.01-0.08c0.01-0.02-0.07-0.16-0.12-0.19c0.03-0.02,0.08-0.1,0.08-0.1
	c-0.04-0.02-0.01-0.09,0.01-0.11l-0.15-0.08c0.01-0.01-0.01-0.12,0.01-0.15c-0.4-0.23-0.02-0.22-0.02-0.42
	c-0.12-0.06-0.04-0.28,0.1-0.24c-0.04-0.63-0.06-4.5-0.04-5.13c0.04-0.17,1.2-0.04,1.61-0.33l0.99-0.99l0.5-1.9l-0.78-1.32
	l0.08-0.99l0.58-1.32l1.36-0.95l0.21,0.78l0.29-0.95l1.07-0.62l0.29-0.7l-1.24-0.66l-1.03,0.41l-1.28-0.04l-0.62,0.62l-1.11-0.08
	l-1.01,1.08"/>
<path class="st0" d="M204.86,116.14c0.06-0.01,0.13-0.01,0.17,0.03c0.02-0.04,0.07-0.06,0.11-0.09c-0.2-0.46,0.22-0.01,0.49-0.19
	c-0.09,0.24,0.21,0.21,0.22,0.04c-0.09-0.06-0.16-0.13,0-0.19c-0.04,0.26,0.2,0.1,0.31,0.06c0.2,0.03,0.56,0.19,0.7,0.36
	c0.25,0.06,0.01-0.26,0.48-0.36c0.19-0.26,0.26-0.04,0.41,0.11c0.04-0.04,0.11-0.07,0.16-0.04c-0.11,0.24,0.16,0.16,0.14-0.02
	c0.04-0.02,0.25,0.04,0.15-0.09c-0.04-0.32,0.39-0.19,0.12-0.35c-0.01-0.08,0.07,0.02,0.3-0.05c0-0.02-0.1-0.08-0.09-0.13
	c0.21,0.01,0.2,0.09,0.21,0.24c0.03,0.18,0.35,0.1,0.54,0.29c0.04-0.07-0.02-0.05,0.08-0.11c0.34-0.02,0.02-0.32,0.34-0.51
	c0.13-0.25,0.12,0.02,0.32-0.11c0.17-0.38,0.27-0.36,0.62-0.58c-0.25-0.51,0.16-0.58,0.54-0.35c0.13,0,0.34-0.26,0.78-0.22
	c-0.09-0.12,0.21-0.26-0.1-0.21c-0.06-0.02-0.06-0.12,0.02-0.13c0.08-0.19-0.29-0.22,0.09-0.36"/>
<path class="st0" d="M231.6,118.92c-1.21-0.01-4.6-0.04-6.07,0.02c0-0.01-0.01-0.01-0.01,0c-1.64,0.03-5.15-0.03-6.55-0.11"/>
<path class="st0" d="M218.96,118.83c-0.04,0.12-0.16,0.41-0.11,0.55c-0.38-0.23-0.53,0.54-0.87,0.52c0.02-0.02-0.21-0.17-0.22-0.1
	c-0.05,0.06-0.27,0.03-0.39,0.13c-0.08,0.11-0.45,0.5-0.47,0.17c-0.04-0.34-0.42,0.15-0.48,0.21c-0.29-0.21-0.17,0.26-0.39,0.34
	c-0.18-0.1-0.57,0.09-0.66,0.25c-0.24-0.04-0.46,0.34-0.68,0.18c-0.35,0.02-0.68,0.14-0.91,0.4c0.05,0.04-0.04,0.15-0.03,0.16
	c0.05,0.19-0.2,0.19-0.35,0.2c-0.22-0.25-0.27,0.42-0.28,0.54"/>
<line class="st0" x1="213.1" y1="122.41" x2="215.81" y2="122.41"/>
<path class="st0" d="M225.89,124.97c-1.47-1.41-2.82-2.59-4.98-2.17c0.12-0.22-0.17-0.49-0.3-0.62c-0.1,0.03-0.17,0.09-0.25,0.13
	c-0.09-0.15,0.1-0.11-0.02-0.23c-0.39-0.02-2.65-0.15-2.84-0.08c-0.02-0.02-0.06-0.01-0.08,0l-0.05-0.05
	c-0.03,0.02-0.08,0.03-0.08,0.08c-0.2-0.01-0.41,0.13-0.58,0.12c0.03,0.06-0.12,0.12-0.19,0.11v-0.02c-0.09,0-0.57,0.14-0.71,0.17"
	/>
<path class="st0" d="M237.46,99.91c0.03,0.13-0.02,0.22-0.06,0.34c0.18,0.13-0.05,0.39-0.03,0.57c0.4,0.37,0.12,0.43,0.12,0.53
	c0.11,0.2-0.06,0.34-0.17,0.51c-0.04,0.18-0.01,0.43,0.07,0.65l-0.04,0.05c0.21,0.13-0.13,0.38-0.07,0.55
	c0.13,0.09,0.08-0.1,0.13-0.11c0.11-0.03,0.13,0.04,0.18,0.05c0.24,0.1-0.07,1.72,0.07,1.93"/>
<path class="st0" d="M241.49,99.91c0.05,0.2,0.12,0.19-0.05,0.35c-0.05,0.15-0.26,0.21-0.06,0.39c0,0.07,0.1,0.08,0.06,0.17
	c0.05,0.03,0.04,0.05,0.02,0.07c-0.03,0.02-0.06,0.02-0.1,0.02l-0.01,0.02c0.02,0.02,0.07,0.06,0.01,0.07
	c0.04,0.07-0.14,0.09-0.11,0.12c-0.02,0.06-0.24,0.16-0.35,0.15c-0.04,0.03-0.04,0.14-0.11,0.1c-0.07,0.04-0.32,0.08-0.4,0.08
	c-0.01,0.04-0.04,0.08-0.08,0.11c0.02,0.02,0.01,0.06,0.04,0.06c-0.08,0.11,0.05,0.22-0.01,0.3c0.08,0.05,0.05,0.06-0.03,0.12
	c0.01,0.02-0.02,0.05-0.03,0.07c-0.03-0.01-0.09,0.11-0.04,0.12c-0.09,0.18-0.21,0.18-0.24,0.43c-0.13,0.09-0.22,0.17-0.28,0.34
	c0.04,0.07-0.04,0.09-0.09,0.11c0,0-0.01,0.12-0.04,0.15c0.09,0.06-0.12,0.36,0.01,0.34c0.02,0.19-0.23,0.37-0.09,0.55
	c-0.04,0.07,0.03,0.08-0.07,0.15c0.02,0.03-0.01,0.07,0.04,0.09c-0.04,0.03-0.06,0.05-0.06,0.09l-0.14,0.05
	c0.06,0.13-0.09,0.14-0.03,0.28c0.02,0.02,0.08,0.1,0.08,0.13c0,0.01,0.13,0.06,0.12,0.1"/>
<path class="st0" d="M237.64,104.97c0.59,0.01,1.2,0,1.78,0.05"/>
<path class="st0" d="M239.44,105.02c0.21,0.01,2.58,0.08,2.61,0.07c0.06-0.08,0.11-0.14,0.24-0.1c-0.05-0.18,0.12-0.22,0.27-0.15
	c0.07-0.23,0.37-0.15,0.54-0.15"/>
<path class="st0" d="M237.64,104.97c-0.1,0.3-0.61,1.44-0.49,1.57"/>
<path class="st0" d="M240.91,106.63l-0.01-0.03c-0.71-0.01-1.42,0.01-2.12-0.02c0,0.07-0.09,0.08-0.14,0.08v-0.09
	c-0.49,0.01-0.99-0.02-1.5-0.04"/>
<path class="st0" d="M240.79,108.19c0.17-0.45,0.13-1.01,0.13-1.57"/>
<path class="st0" d="M237.15,106.54c-0.01,0.3-0.29,1.59,0.01,1.89c-0.18,0.09-0.36,0.17-0.54,0.25c0.01,0.01,0.2,0.22,0.16,0.24"/>
<path class="st0" d="M234.48,108.09c0.57,0.29,1.16,0.54,1.75,0.82c-0.04,0.2-0.27,0.62-0.28,0.67"/>
<path class="st0" d="M169.25,108.9c-3.7-0.03-7.45,0.04-11.12-0.03"/>
<path class="st0" d="M158.14,108.88c-0.16,0-4.32-0.01-4.42,0.01c-0.01-0.04,0.02-2.01-0.01-2.24c-0.78-0.03-5.93,0.01-6.64,0.02"/>
<path class="st0" d="M153.7,101.07c0-0.39-0.01-0.78-0.01-1.17l15.53,0.01"/>
<path class="st0" d="M126.05,97.07c0.25-0.02,0.12,0.37,0.52,0.26c0.22-0.16,0.41-0.06,0.59,0.07c0.33-0.01,0.35,0.36,0.49,0.57
	c-0.31,0.53,0.4,0.6,0.78,0.65c0.52,0.19,1.09-0.33,1.59-0.27c0.33-0.02,0.97-0.15,1.14,0.18c0.17,0.08,0.26-0.13,0.43-0.1
	c0.33,0.07,0.65-0.23,0.96-0.19c0.23,0.17,0.68,0.09,0.91-0.07c2.31-0.67,4.74-0.52,7.22-0.51"/>
<path class="st0" d="M140.68,97.66c0.1,0.13,0.23,0.31,0.32,0.4c0.12-0.06,0.16,0.02,0.22,0.07c0.3-0.03,0.28,0.21,0.41,0.34
	c0.09,0.04-0.03,0.16-0.11,0.18c-0.04,0.19-0.21,0.35-0.32,0.53c0.01,0.32-0.32,0.52-0.39,0.78c0.01,0,0.04-0.01,0.04-0.02
	l0.01,0.01c-0.04,0.07-0.01,0.24-0.15,0.27c-0.06,0.12-0.2,0.22-0.35,0.24c-0.13,0.2-0.19,0.46-0.38,0.6
	c0.11,0.14-0.14,0.14,0.06,0.3c0.01,0.03-0.01,0.07-0.04,0.08c0.02,0.13,0.16,0.11,0.25,0.07c0.09,0.14,0.2,0.03,0.3,0.1
	c-0.07,0.13,0.14,0.09,0.17,0.16c0.03,0.09-0.2,0.16-0.16,0.25c0.08,0.04,0.07,0.07,0.05,0.15c-0.03,0.01-0.05,0.05-0.08,0.05v0.01
	c0.01,0,0.03,0.01,0.03,0.01c-0.03,0.02,0,0.05,0.01,0.07c-0.04,0.02-0.06,0.08-0.06,0.12c-0.26-0.01-0.01,3.82-0.09,4.2"/>
<path class="st0" d="M142.62,90.91c0.05,0.18-0.14,2.51,0.16,2.46l-0.01,0.03c0.08,0.11,0.29,0.1,0.27,0.26
	c0.04,0.04,0.02,0.1,0.1,0.06c0.03,0.02,0.06,0.04,0.05,0.08c0.04,0.03,0.17,0.03,0.13,0.1c-0.05,0.1,0.07,0.1,0.07,0.19
	c-0.03,0.03-0.06,0.07-0.1,0.07c0,0.02-0.02,0.04-0.04,0.04c0.02,0.03,0.08,0.03,0.11,0.04l0.01,0.02
	c-0.06,0.03,0.03,0.05,0.04,0.08c0.17,0.02-0.14,0.1-0.16,0.14c0.16,0.02,0.28,0.06,0.41,0.15c0.09,0.09,0.24,0.23,0.33,0.15
	c0.01,0.11,0.27-0.02,0.23,0.11c0.04,0.02,0.09,0.06,0.04,0.1c0.03,0.05,0.12,0,0.11,0.07c0.25,0.1,0.31,0.23,0.44,0.42
	c0.1-0.02,0.36,0.12,0.24,0.25c0.04,0,0.06,0.02,0.04,0.05c0,0.04,0.08,0.02,0.06,0.08l0.08-0.01c0.1,0.11,0.29,0.06,0.18,0.24
	c0.01-0.01,0.03-0.01,0.04-0.01c-0.02,0.07,0.16-0.03,0.16-0.07c0.06,0.01,0.14,0.02,0.17,0.08c-0.01,0.01-0.02,0.03-0.01,0.05
	c-0.04,0-0.05,0.04-0.01,0.05c0.04,0.11,0.2-0.01,0.29,0.04c0.07,0.04,0.53-0.21,0.35,0.11c0.02,0.07-0.04,0.12-0.01,0.17
	c-0.03,0.03-0.06,0.04-0.1,0.02c-0.03,0.03-0.02,0.08,0.03,0.1c0,0.01-0.01,0.02-0.01,0.03c0.06,0.08-0.12,0.11-0.06,0.19
	c-0.04,0.17-0.1,0.26-0.07,0.43c-0.02,0-0.05,0.01-0.06,0.02c-0.03-0.02-0.05-0.01-0.08-0.01c0,0.02-0.02,0.04-0.04,0.05l0.03,0.02
	l-0.01,0.02c0.11,0.02,0.13,0.05,0.11,0.14c-0.03,0.02-0.08,0.03-0.09,0.07c0.08,0.02,0.08,0.01,0.05,0.08
	c0.07,0,0.28,0.07,0.13,0.14c0.06,0.08,0.12,0.1,0.06,0.19c-0.06-0.03-0.17,0-0.24,0.02c-0.01,0.03,0,0.05-0.04,0.05
	c0,0.02-0.07,0.09-0.09,0.11c0.01,0.03,0.05,0.01,0.06,0.04c0,0.07,0.19,0.09,0.07,0.16l0.04,0.01c0.01,0.13-0.25,0.04-0.09,0.18
	l-0.04,0.04c0.01,0.02,0.01,0.05-0.01,0.06c0.12-0.01,0.07,0.01,0.23,0.01l-0.01,0.02l0.01,0.01c0.06-0.04,0.07,0.05,0.08,0.08
	c0.21,0.01,0.1,0.14,0.24,0.1c0.07-0.04,0.15-0.07,0.15-0.17c0.04-0.05,0.07,0.03,0.26-0.05c0.07-0.09,0.17-0.15,0.27-0.21
	c-0.05-0.15,0.1-0.07,0.18-0.08c-0.02,0.09,0.14,0.09,0.07,0.16c0.1,0.03,0.16-0.03,0.23,0.1c-0.06,0.02-0.05,0.08-0.07,0.12
	c0.02,0.04,0.11-0.01,0.13,0.01c-0.01,0.04,0.06,0.08-0.01,0.11c0.01,0.01-0.02,0.03-0.02,0.04l0.02,0.02
	c-0.02,0.03,0.01,0.04,0.03,0.05c-0.01,0-0.03,0.02-0.04,0.03c0.1,0.03,0.13,0.09,0.08,0.18c0.04,0.05,0.1,0.08,0.14,0.13
	l-0.03,0.02c0.06,0.07,0.17,0.13,0.23,0.21c-0.04,0.04,0.01,0.05,0.05,0.07c-0.03,0.05,0.02,0.06,0.05,0.08
	c0.01-0.02,0.06-0.02,0.08-0.01c0,0.02-0.01,0.04-0.03,0.05c0.03,0.06,0.19,0.05,0.15,0.12c0.15,0.18-0.19,0.19-0.03,0.29
	l-0.01,0.02c0.03,0.06,0.09,0.08,0.13,0.13c0.04-0.01,0.21,0.05,0.14,0.1c0.13,0.02,0.21-0.12,0.48,0.04
	c-0.02,0.06,0.06,0.06,0.07,0.13c0,0.07,0.11,0.14,0.12,0.21c-0.06-0.01-0.13,0.06-0.04,0.08c-0.01,0.03,0.02,0.04,0.04,0.04
	c-0.01,0.07,0.03,0.07,0.08,0.11c-0.15,0.19,0.25,0.24,0.36,0.36c0.09-0.03,0.06-0.09,0.01-0.14c0.03-0.05,0.1-0.09,0.13-0.14
	c0.19-0.06,0.15-0.04,0.35,0c0.16-0.02,0.35,0.04,0.49,0.06c0.11,0.08,0.1-0.16,0.12-0.18c0.2-0.11,0.24-0.03,0.4-0.02
	c0.08,0.04,0.2,0.02,0.31,0.02c0-0.01-0.03-0.02-0.04-0.02c0.18,0.02,0.37-0.15,0.51,0.07c0.02,0,0.04-0.01,0.04-0.03
	c0.09,0.01,0.17-0.07,0.25-0.08c0.04,0,0.74,0.09,0.38-0.01l0.01-0.02c-0.12-0.07,0.02-0.1-0.03-0.15c0.04-0.03,0.09-0.03,0.1-0.1
	c-0.12-0.05,0.07-0.13,0.12-0.07c0.04-0.04,0.06-0.16,0.13-0.04c0.06-0.01,0.21,0.09,0.17,0.17c0.03,0.02,0.09,0,0.11,0.05
	c-0.03,0.02-0.03,0.08,0.01,0.08l0.01,0.04c0.1-0.01,0.12,0.08,0.2,0.11c-0.05,0.08,0.13,0.1,0.18,0.12"/>
<path class="st0" d="M133.83,106.66c-0.01,0.21-0.01,6.75-0.01,6.75c3.8,2.57,8.35,6.14,11.93,8.98"/>
<path class="st0" d="M186.13,103.27c-0.02-0.9,0.06-3.16,0-4.02c-0.04-0.23-0.53-0.26-0.54-0.27c-0.1-0.16-0.23-0.34-0.39-0.42
	c0.18-0.26,0.73-0.34,0.68-0.74"/>
<path class="st0" d="M185.87,97.81c0-0.28-0.03-0.55-0.08-0.84c-0.15-0.2-0.3-0.37-0.35-0.63c-0.11-0.16-0.08-0.18-0.04-0.33
	c-0.05-0.13-0.04-0.2,0.02-0.34c-0.2-0.41-0.15-0.92-0.19-1.38c0.07-0.37-0.31-0.68-0.42-1.02c-0.1-0.08,0.08-0.09,0.06-0.15
	c-0.07-0.09-0.22-0.09-0.23-0.25c-0.06-0.31,0.03-0.67-0.08-0.96c-0.01-0.09,0.16-0.2,0.11-0.3c-0.13-0.22-0.21-0.48-0.31-0.7"/>
<path class="st0" d="M197.76,103.28c-0.03-1.25-0.48-0.93-1.31-1.49c-0.1-0.07-0.24-0.26-0.33-0.43c-0.29-0.16-0.66-0.08-0.79-0.42
	c-0.44,0-0.7-0.25-1.06-0.45c0.02-0.1,0.04-0.2,0.08-0.3c0.03-0.15,0-0.31-0.07-0.44c0.14-0.03,0.09-0.11,0.13-0.2
	c-0.16-0.17,0.05-0.33,0.15-0.49c0.19-0.09-0.11-0.42-0.45-0.44c-0.16-0.29,0.25-0.35,0.26-0.57c0.13-0.24,0.54-0.26,0.72-0.42
	c0.16-0.02,0.32-0.01,0.28-0.21l0.06-0.02c0.01-0.4-0.01-0.81,0-1.21c1.66-0.78,3.96-2.46,5.98-2.71"/>
<path class="st0" d="M158.15,117.9c0.73,0.01,11.96,0,13.43,0"/>
<path class="st0" d="M171.58,119.04h-0.1c0.01,2.08-0.04,8.64-0.04,10.11h-7.91c0.19,0.15-0.08,0.42,0.25,0.48v0.02"/>
<path class="st0" d="M145.53,127.55c0.06-0.14,0.44,0.14,0.45-0.09c0.01-0.26,0.19-0.06,0.14-0.29c-0.06-0.34-0.08-0.36-0.4-0.36
	c-0.29-0.1,0.08-0.51-0.14-0.74c-0.02-0.11,0.13-0.05,0.18-0.14c0.06-0.05,0.18-0.26,0.18-0.26c0.03-0.24,0.16-0.39,0.06-0.64
	c0.08-0.1-0.09-0.21,0.03-0.28c0.18-0.06,0.1-0.34,0.28-0.36c0.33-0.12,0.81-0.44,0.27-0.64c-0.07-0.08-0.23-0.09-0.25-0.16
	c0.02-0.17-0.18-0.33-0.19-0.5c-0.21-0.2-0.41-0.38-0.37-0.71"/>
<path class="st0" d="M190.48,125.47c-0.15,0.07-0.15-0.2-0.37-0.13c-0.23-0.01-0.15-0.15-0.45-0.13c-0.21-0.19-0.53-0.5-0.83-0.43
	c-0.08,0.22-0.55,0.19-0.7,0.05c-0.11-0.11-0.17,0.1-0.34,0.05c-0.12-0.03-0.16,0.14-0.29,0.1c-0.27-0.1-0.17-0.02-0.41,0.01
	c-0.27-0.04-0.34,0.28-0.51,0.18c-0.15-0.01-0.1,0.15-0.23,0.15c-0.02-0.07-0.13-0.11-0.13-0.18c-0.27,0.08-0.15-0.14-0.36-0.1
	c-0.17-0.12,0.12-0.18-0.2-0.22c-0.03,0.08-0.1,0.26-0.24,0.17c-0.03-0.06-0.13-0.13-0.16-0.04c-0.12,0-0.09-0.34-0.3-0.21
	l-0.01-0.03c-0.06,0,0.04,0.33-0.14,0.28c-0.03-0.03-0.08-0.07-0.1-0.01l0.08,0.04l-0.01,0.03c-0.19,0.01,0.04,0.16-0.15,0.21
	c-0.06,0.02-0.19-0.1-0.16-0.14c-0.04-0.06-0.02-0.09,0.04-0.12c0.04-0.14-0.15-0.27-0.18-0.07c-0.01,0-0.13-0.06-0.13-0.04
	c0.02,0.02,0.02,0.06-0.02,0.06l-0.01-0.04c-0.03,0.09-0.22,0.22-0.29,0.07c0.18-0.34-0.36,0.06-0.31-0.28
	c-0.04,0.04-0.1-0.08-0.18-0.05c-0.04,0.05-0.11,0.13-0.18,0.13l0.01,0.04l-0.04,0.02c0,0.02,0,0.07-0.04,0.06
	c-0.2,0.17-0.51-0.02-0.35-0.08l-0.03-0.04c0.11-0.09,0-0.08-0.04-0.15c-0.4,0.14-0.18-0.21-0.31-0.33
	c-0.08,0.21-0.28-0.01-0.34,0.07c-0.24-0.14-0.23,0.01-0.37,0.14c-0.18,0.02-0.22-0.21-0.41-0.21c-0.35,0,0.01,0.12-0.63-0.02
	c-0.09-0.08-0.11-0.18-0.25-0.08c-0.12-0.02-0.25,0-0.37-0.06c-0.07-0.14-0.05-0.3-0.19-0.41c-0.22-0.03-0.22-0.24-0.29,0.07
	c-0.14,0.04-0.24-0.12-0.39-0.08c-0.22,0.4-0.57-0.52-0.92-0.36l-0.01-4.32h-6.68"/>
<path class="st0" d="M190.48,125.47c0.19-0.09,0.01,0.03,0.12,0.08c0.11,0.06,0.13,0.1,0.23,0.07c0.05,0.06,0.16-0.09,0.18-0.03
	c0.07,0.12,0.17-0.09,0.25-0.01c0.04,0.09,0.18-0.07,0.18-0.01c-0.02,0.05-0.01,0.08,0.03,0.08c-0.04,0.36,0,0.82,0.01,1.18"/>
<path class="st0" d="M191.49,126.84c0.01,0.77-0.01,1.55-0.01,2.32c0.12,0.05,0.56,0.46,0.53,0.71c-0.02,0.32-0.09,0.2,0.2,0.4
	c-0.16,0.1,0.04,0.1,0.02,0.2c0.23,0.07-0.08,0.29,0.19,0.34c0,0.08,0.04,0.17,0.05,0.24c0.08-0.09,0.19,0.07,0.09,0.15
	c0.06,0.01,0.1,0.08,0.11,0.13c-0.02,0.02-0.08,0.07-0.12,0.05l-0.03,0.02c0.02,0.06,0.1,0.09,0.08,0.17
	c-0.13,0.01-0.05,0.2-0.06,0.28c-0.1,0.17-0.25,0.31-0.29,0.49v-0.02c-0.18,0.05-0.01,0.24-0.02,0.36
	c-0.12,0.02-0.13,0.11-0.14,0.21c0.05,0.02,0.04,0.1,0.11,0.1c0.15,0.12,0.06,0.24,0.03,0.39c-0.03,0.01-0.06,0.08-0.03,0.1
	c-0.01,0.05-0.08,0.15-0.15,0.18"/>
<path class="st0" d="M201.53,133.24c-0.11,0.02-0.2-0.04-0.2-0.13c-0.07-0.09-0.04-0.44-0.36-0.67c-0.02,0.01-0.1-0.15-0.11-0.17
	c0.05-0.04-0.03-0.15-0.02-0.21c0.02-0.02,0.08-0.06,0.02-0.08l0.04-0.11c0.05,0.01,0.07-0.07,0.04-0.11
	c0.01-0.02,0.15-0.3,0.13-0.34c-0.32,0.02-3.81-0.02-4.22-0.01c0.26-0.09,0.1-0.16,0.01-0.3c0.08-0.13,0.1-0.14-0.04-0.25
	c0.05-0.15,0.27,0.06,0.3-0.13c-0.03-0.04-0.16-0.18-0.15-0.23l0.06-0.05c0.02,0.03,0.07,0.15,0.11,0.14
	c0.13-0.05-0.08-0.27-0.05-0.33c0.4-0.05,0.2-0.47,0.41-0.75c0.19,0,0.32-0.15,0.39-0.32c0.09,0.01,0.15-0.01,0.17-0.09
	c-0.06-0.04-0.19-0.01-0.18-0.1c0.05-0.05,0.31,0.1,0.16-0.05l0.2-0.15c-0.04-0.05-0.14-0.04-0.2,0.01
	c-0.27,0.15-0.18-0.21,0.05-0.17c0.15,0.2,0.23,0,0.21-0.17c0.05,0,0.15,0.02,0.17-0.04c-0.02-0.09-0.23-0.02-0.25-0.1
	c0.17-0.2-0.31-0.13-0.22-0.32c0.08-0.17,0.13,0.11,0.26,0.04c0.02-0.06-0.14-0.13-0.18-0.16c0.03-0.18,0.18-0.19-0.08-0.29
	c0.23-0.15,0.07-0.13-0.08-0.19c0.12-0.14,0.27-0.65-0.01-0.45l-0.01-0.01v-0.1"/>
<line class="st0" x1="199.77" y1="122.41" x2="204.47" y2="122.41"/>
<path class="st0" d="M215.81,122.41c-0.02,0.03-0.07,0.07-0.06,0.11c-0.01,0.04,0.01,0.08-0.08,0.05c-0.14,0.06-0.23,0.18-0.37,0.3
	c0.02,0.06-0.02,0.13-0.07,0.17c0.03,0.16,0.3,0.19,0.42,0.25c0,0.08,0.2,0.15,0.21,0.24c0.12,0.13,0.34-0.03,0.43,0.1
	c0.18,0.22,0.3,0.64,0.51,0.84c0.13,0.41,0.76,0.48,0.92,0.87c0.09,0.26,0.44,0.27,0.54,0.49c0.06,0.02,0.21,0.06,0.12,0.13
	c-0.01,0.09-0.08,0.18,0.04,0.23c0.11,0.05,0.14,0.23,0.28,0.27c0.04,0.27,0.51,0.26,0.64,0.48c-0.07,0.06,0.01,0.15,0.04,0.21
	c0.01-0.04,0.06,0.1,0.04,0.11c0.01-0.01,0.08,0.07,0.07,0.1c0.02,0.03,0.04,0.13,0.04,0.12c0,0.03-0.01,0.07-0.04,0.08
	c0.06,0.04,0.08,0.13,0.02,0.18c0,0,0.13,0.11,0.13,0.12c0.08,0.03,0.23,0.12,0.27,0.14c-0.01,0.05,0.06,0.09,0.1,0.11l-0.04,0.08
	c0.07,0.06,0.05,0.13,0.1,0.2c0.08-0.07,0.06,0.11,0.07,0.15c-0.28,0.36,0.3,0.45,0.54,0.6"/>
<path class="st0" d="M199.05,105.52c0.47,0.01,6.18,0.01,6.32,0.02c-0.28-1.81,0.7-3.85,1.2-5.55c-0.35,0.26-1.18,0.87-1.65,0.78
	l0.89-1.23c-0.35-0.1,0.09-0.42-0.2-0.5c-0.17,0.13-0.29,0.11-0.42,0.07c0.1-0.12,0.03-0.22,0.22-0.3
	c-0.01-0.01-0.06-0.15-0.11-0.17c0,0,0.11-0.07,0.11-0.11c-0.13-0.04-0.1-0.12,0-0.15c-0.11-0.15-0.29-0.17-0.44-0.21
	c0.01-0.01-0.01-0.04-0.01-0.05c-0.12,0.04-0.24,0.05-0.3-0.08c0.26-0.11-0.01-0.23-0.16-0.27l-0.01,0.01
	c-0.15-0.05-0.29,0-0.4-0.09c-0.15,0.05-0.33-0.1-0.49-0.07c-0.06,0.21-0.34-0.14-0.44-0.01c-0.89-0.46-1.95-0.51-2.92-0.71
	c0-0.21-0.25-0.38-0.42-0.43c-0.01-0.04-0.06-0.08-0.09-0.02c-0.08,0.02-0.15-0.01-0.17-0.1l-0.95,0.04l0.08-0.62l-3.26,0.62"/>
<path class="st0" d="M223.2,105.69c0,0.2,0.02,0.77,0.02,0.97c3.26,0.08,6.71-0.22,9.87,0.11l0.08,0.01
	c-0.02,0.18,0.1,0.23,0.23,0.17c0.08,0.03,0.14,0.12,0.23,0.13c-0.03,0.02-0.05,0.05-0.06,0.08c0.12-0.01,0.14,0.13,0.08,0.14
	l0.04,0.2c-0.03-0.01-0.03,0.03-0.06,0.04c0.02,0.02,0.13,0.12,0.11,0.15c0.03,0.03,0.11,0.09,0.09,0.12
	c0.13-0.01,0.19,0.1,0.34,0.11c0.21,0.04,0.16-0.01,0.31,0.16"/>
<path class="st0" d="M240.91,106.63c0.29,0.05,1.04-0.25,0.92,0.23l0.08-0.01c-0.04,0.24,0.08,0.31,0.23,0.45"/>
<path class="st0" d="M242.41,107.76c0,0-0.05-0.24-0.05-0.35c-0.05,0-0.08,0-0.12-0.02"/>
<path class="st0" d="M242.5,99.22c0.03,0.42,0.19,3.8,0.27,3.98c-0.08,0.01,0,0.09-0.02,0.13l0.02,0.03
	c-0.03,0.03-0.04,0.07-0.04,0.11c-0.06,0.02-0.01,0.13,0,0.17c0.11,0.01,0.21,0.19,0.28,0.21c0.01,0.03,0.06,0.06,0.08,0.08
	c-0.18,0.22,0.11,0.34,0.18,0.3"/>
<path class="st0" d="M229.21,113.64c-0.09,0-0.14-0.13-0.2-0.15c-0.08-0.02-0.28,0.02-0.18-0.11c-0.18-0.12-0.43-0.07-0.61-0.23
	v-0.1l0.1-0.04c0-0.03,0.01-0.06,0.04-0.08c-0.08-0.08-0.2-0.08-0.24-0.18c-0.13,0.01-0.24-0.07-0.37-0.05"/>
<path class="st0" d="M234.48,108.09c-0.42,0.08-0.31,0.41-0.65,0.57l0.03,0.05c-0.13,0.06-0.27,0.15-0.37,0.24
	c0.08,0.07,0.1,0.17,0.18,0.24l-0.02,0.07l-0.07,0.01c0.03,0.15-0.16,0.13-0.23,0.21c0.06,0.03-0.01,0.1-0.02,0.13l0.05,0.03
	c-0.03,0.07-0.09,0.22,0.02,0.25c0.3-0.21,0.18,0.32,0.32,0.36c0.2,0,0.46,0.46,0.67,0.56c-0.26,0.12-0.67,0.27-0.9,0.46
	c0.09,0.32-0.48,0.18-0.54,0.32c-0.32,0.14-0.11,0.08-0.28,0.23"/>
<path class="st0" d="M201.11,120.14c-0.08,0.14,0.28,0.22,0.12,0.29c-0.08,0-0.13-0.13-0.22-0.03c-0.06,0.07,0,0.11,0.09,0.1
	c0.11,0.06-0.07,0.12-0.13,0.07c-0.08-0.02-0.04,0.11-0.07,0.13c-0.14,0-0.49,0.25-0.14,0.18c0.21,0.17-0.44,0.11-0.11,0.27
	c0.02,0.04,0.05,0.07,0.01,0.1c-0.38-0.12-0.04,0.17-0.28,0.18c-0.05-0.09-0.19-0.22-0.19-0.01c-0.11,0.01-0.2,0.16-0.02,0.15
	c-0.04-0.05,0.02-0.08,0.06-0.1c0.01,0.02,0.06,0.05,0.06,0.05c-0.18,0.24,0.08,0.48,0.01,0.58c-0.35,0.03-0.08-0.01-0.36,0.21
	c-0.11-0.04-0.16-0.04-0.17,0.08"/>
<path class="st0" d="M201.11,120.14l-1.45,0.01c0.17-0.28,0.47-0.43,0.66-0.67c-0.04-0.11,0.04-0.26-0.16-0.25
	c-0.03-0.02-0.02-0.14-0.04-0.21c-0.04,0-0.11,0.05-0.11,0.05c-2.88-0.15-7.21,0-9.81-0.04"/>
<path class="st0" d="M202.4,117.94c-0.14,0.08-0.21-0.2-0.34-0.21c-0.14,0.03,0.05,0.11,0.05,0.17c-0.22,0.11-0.46-0.39-0.44-0.52
	c-0.3-0.04-0.04-0.18,0.06-0.23c0.06-0.04,0-0.18-0.04-0.22c-0.29-0.29,0.04-0.59-0.48-0.68c-0.06-0.46-0.69-0.21-0.67-0.43
	c-0.67-0.54-1.32-0.56-0.5-1.47c0.08-0.14-0.09-0.28,0.06-0.4c0.25-0.08,0.09-0.21-0.08-0.26c-0.27-0.08-0.46-0.29-0.65-0.07
	c-0.09,0.11-0.18,0.18-0.31,0.04c-0.24-0.3-0.04-0.69-0.35-0.93c-0.46-0.29-1.45-0.87-1.4-1.36c0,0-0.08-0.12-0.08-0.19
	c-0.15-0.1-0.09-0.74,0.07-0.84"/>
<path class="st0" d="M205.9,107.5c-0.24-0.45-0.73-1.45-0.54-1.97"/>
<path class="st0" d="M215.23,95.86"/>
<polyline class="st0" points="212.1,98.22 212.39,97.68 214.49,97.76 "/>
</svg>
